<svg width="26" height="39" viewBox="0 0 26 39" fill="none" xmlns="http://www.w3.org/2000/svg">
<rect x="0.847826" y="0.847826" width="24.3043" height="28.7871" rx="1.84183" stroke="#687287" stroke-width="1.69565"/>
<mask id="path-2-inside-1_400_2208" fill="white">
<rect x="7.17188" y="29.021" width="11.6552" height="5.37931" rx="0.896552"/>
</mask>
<rect x="7.17188" y="29.021" width="11.6552" height="5.37931" rx="0.896552" stroke="#687287" stroke-width="3.3913" mask="url(#path-2-inside-1_400_2208)"/>
<line x1="25.1522" y1="8.91667" x2="22.3651" y2="8.91667" stroke="#687287" stroke-width="1.69565" stroke-linecap="round"/>
<line x1="25.1522" y1="18.779" x2="22.3651" y2="18.779" stroke="#687287" stroke-width="1.69565" stroke-linecap="round"/>
<line x1="25.1522" y1="13.3996" x2="20.572" y2="13.3996" stroke="#687287" stroke-width="1.69565" stroke-linecap="round"/>
<line x1="25.1522" y1="24.1584" x2="20.572" y2="24.1584" stroke="#687287" stroke-width="1.69565" stroke-linecap="round"/>
<path d="M12.7181 34.1958C12.5687 35.6901 13.2696 37.3045 16.1386 37.3045" stroke="#687287" stroke-width="1.69565" stroke-linecap="round"/>
<path d="M14.1224 7.20344C13.6841 6.8334 13.1266 6.60742 12.5502 6.60742C11.9738 6.60742 11.4163 6.8334 10.978 7.20344C8.00235 9.64789 5.39126 15.8799 8.74417 19.4044C9.75689 20.396 11.1247 20.9522 12.5502 20.9522C13.9757 20.9522 15.3435 20.396 16.3562 19.4044C19.7121 15.8562 17.101 9.66046 14.1224 7.20344ZM10.5929 14.1914C10.5929 14.0632 10.6444 13.9401 10.7362 13.8494C10.828 13.7587 10.9524 13.7078 11.0822 13.7078C11.212 13.7078 9.83261 13.8851 9.92437 13.9758C10.0161 14.0665 10.1652 14.5468 10.1652 14.6751C10.1652 14.8034 11.52 14.4427 11.4282 14.5334C11.3365 14.6241 12.4397 14.2705 12.3099 14.2705C12.1801 14.2705 11.0697 11.7539 10.978 11.6632C10.8862 11.5725 10.5929 14.3197 10.5929 14.1914ZM9.92437 17.7279C9.85235 17.8347 12.3662 17.6688 12.239 17.6939C12.1117 17.7191 12.5878 17.0396 12.4798 16.9684C12.3718 16.8972 11.117 17.314 11.0916 17.1882C11.0662 17.0624 11.0924 16.9317 11.1644 16.825L14.0182 15.5401C14.0902 15.4334 13.3057 13.7422 13.433 13.7171C13.5603 13.692 12.7295 13.6459 12.8374 13.7171C12.9454 13.7883 13.0529 15.3123 13.0783 15.4381C13.1037 15.5639 14.008 14.3531 13.936 14.4599L9.92437 17.7279ZM14.0182 17.5771C13.8884 17.5771 14.6954 17.762 14.6036 17.6713C14.5119 17.5806 15.005 17.1647 15.005 17.0365C15.005 16.9082 13.6267 15.9029 13.6722 16.7514C13.764 16.6607 13.8884 18.2041 14.0182 18.2041C14.148 18.2041 14.3398 18.2607 14.4316 18.3514C14.5234 18.4421 14.5075 16.9652 14.5075 17.0934C14.5075 17.2217 14.456 17.3447 14.3642 17.4354C14.2724 17.5261 14.148 17.5771 14.0182 17.5771Z" fill="#E84363"/>
<path d="M12.1028 8.40039C11.0568 9.44637 8.96484 12.2556 8.96484 15.1245" stroke="white" stroke-width="0.627586" stroke-linecap="round"/>
</svg>
