<svg width="31" height="33" viewBox="0 0 31 33" fill="none" xmlns="http://www.w3.org/2000/svg">
<path d="M16.4563 32.7633C16.9441 32.7633 17.3395 32.3679 17.3395 31.8801C17.3395 31.3923 16.9441 30.9969 16.4563 30.9969V32.7633ZM22.6388 13.7742C22.6388 14.262 23.0342 14.6574 23.522 14.6574C24.0098 14.6574 24.4052 14.262 24.4052 13.7742H22.6388ZM11.9207 17.1875L12.5452 16.563L11.9207 17.1875ZM3.53403 24.9468L3.28312 24.0999L3.53403 24.9468ZM16.4563 30.9969H4.53959V32.7633H16.4563V30.9969ZM3.78494 25.7936L10.7233 23.7378L10.2215 22.0441L3.28312 24.0999L3.78494 25.7936ZM12.5452 16.563L11.5672 15.585L10.3182 16.834L11.2961 17.812L12.5452 16.563ZM10.2738 12.4623V7.71907H8.50734V12.4623H10.2738ZM10.904 5.5849C12.1615 3.88846 13.9123 2.34519 15.7939 1.97039C16.7078 1.78836 17.6776 1.87507 18.6954 2.38529C19.7267 2.90224 20.8511 3.87691 22.009 5.54142L23.4591 4.53271C22.1859 2.7024 20.8542 1.49149 19.487 0.806147C18.1063 0.114063 16.7353 -0.0182489 15.4489 0.237995C12.9299 0.73975 10.842 2.70226 9.48492 4.533L10.904 5.5849ZM22.6388 7.71907V13.7742H24.4052V7.71907H22.6388ZM22.009 5.54142C22.4308 6.14776 22.6388 6.91422 22.6388 7.71907H24.4052C24.4052 6.62265 24.123 5.48716 23.4591 4.53271L22.009 5.54142ZM10.2738 7.71907C10.2738 6.90842 10.4769 6.16103 10.904 5.5849L9.48492 4.533C8.77978 5.48428 8.50734 6.62845 8.50734 7.71907H10.2738ZM11.5672 15.585C10.739 14.7568 10.2738 13.6336 10.2738 12.4623H8.50734C8.50734 14.102 9.15871 15.6746 10.3182 16.834L11.5672 15.585ZM13.8066 19.6084C13.8066 18.4661 13.3529 17.3706 12.5452 16.563L11.2961 17.812C11.7726 18.2884 12.0402 18.9346 12.0402 19.6084H13.8066ZM10.7233 23.7378C12.5521 23.1959 13.8066 21.5157 13.8066 19.6084H12.0402C12.0402 20.7334 11.3002 21.7245 10.2215 22.0441L10.7233 23.7378ZM1.88322 28.3405C1.88322 27.1641 2.657 26.1278 3.78494 25.7936L3.28312 24.0999C1.40511 24.6564 0.116784 26.3818 0.116784 28.3405H1.88322ZM4.53959 30.9969C3.07252 30.9969 1.88322 29.8076 1.88322 28.3405H0.116784C0.116784 30.7832 2.09695 32.7633 4.53959 32.7633V30.9969Z" fill="#687287"/>
<circle cx="21.3149" cy="23.4896" r="4.41608" stroke="#E84363" stroke-width="1.76643"/>
<path d="M25.4722 26.3979C25.1273 26.053 24.568 26.053 24.2231 26.3979C23.8782 26.7429 23.8782 27.3021 24.2231 27.647L25.4722 26.3979ZM29.0808 32.5047C29.4257 32.8496 29.985 32.8496 30.3299 32.5047C30.6748 32.1598 30.6748 31.6005 30.3299 31.2556L29.0808 32.5047ZM24.2231 27.647L29.0808 32.5047L30.3299 31.2556L25.4722 26.3979L24.2231 27.647Z" fill="#E84363"/>
</svg>
